<?xml version="1.0" encoding="utf-8"?>
<svg version="1.1" id="art" xmlns="http://www.w3.org/2000/svg" xmlns:xlink="http://www.w3.org/1999/xlink" x="0px" y="0px"
	 viewBox="-130 -130 500 500" xml:space="preserve">
<path fill="#BD081C" d="M122,0C54.6,0,0,54.6-0.1,121.9c0,50.3,30.8,95.4,77.6,113.7c-1.1-9.6-2-24.5,0.4-35
	c2.2-9.6,14.3-60.6,14.3-60.6c-2.5-5.7-3.7-11.9-3.7-18.1c0-17,9.8-29.6,22.1-29.6c10.4,0,15.4,7.8,15.4,17.2
	c0,10.5-6.7,26.1-10.1,40.6c-2.9,12.1,6.1,22,18.1,22c21.7,0,38.4-22.9,38.4-55.9c0-29.2-21-49.6-51-49.6c-34.7,0-55.1,26-55.1,52.9
	c0,10.5,4,21.7,9.1,27.8c0.9,0.9,1.2,2.3,0.8,3.5c-0.9,3.9-3,12.1-3.4,13.8c-0.5,2.2-1.8,2.7-4.1,1.6c-15.2-7.1-24.7-29.3-24.7-47.3
	c0-38.5,28-73.8,80.6-73.8c42.3,0,75.2,30.2,75.2,70.5c0,42-26.5,75.9-63.3,75.9c-12.4,0-24-6.4-28-14c0,0-6.1,23.3-7.6,29
	c-2.8,10.6-10.2,23.9-15.2,32c64.4,19.9,132.7-16.2,152.5-80.6S222.1,25.3,157.8,5.4C146.2,1.8,134.1,0,122,0z"/>
</svg>
