<?xml version="1.0" encoding="utf-8"?>
<!-- Generator: Adobe Illustrator 19.2.1, SVG Export Plug-In . SVG Version: 6.00 Build 0)  -->
<svg version="1.1" id="Layer_1" 
	xmlns="http://www.w3.org/2000/svg" 
	xmlns:xlink="http://www.w3.org/1999/xlink" x="0px" y="0px" viewBox="0 0 270 270" style="enable-background:new 0 0 270 270;" xml:space="preserve">
	<path fill="#78D4B6" d="M154.3,87.1c-1.9-5.7-8-8.8-13.7-7c-5.7,1.9-8.8,8-7,13.7l28.1,86.4c1.9,5.3,7.7,8.3,13.2,6.7			c5.8-1.7,9.3-7.8,7.4-13.4C182.3,173.3,154.3,87.1,154.3,87.1z"/>
	<path fill="#78D4B6" d="M110.8,101.2c-1.9-5.7-8-8.8-13.7-7c-5.7,1.9-8.8,8-7,13.7l28.1,86.4c1.9,5.3,7.7,8.3,13.2,6.7			c5.8-1.7,9.3-7.8,7.4-13.4C138.8,187.4,110.8,101.2,110.8,101.2z"/>
	<path fill="#78D4B6" d="M189.7,158.6c5.7-1.9,8.8-8,7-13.7c-1.9-5.7-8-8.8-13.7-7l-86.5,28.2c-5.3,1.9-8.3,7.7-6.7,13.2			c1.7,5.8,7.8,9.3,13.4,7.4C103.4,186.7,189.7,158.6,189.7,158.6z"/>
	<path fill="#78D4B6" d="M175.5,115.1c5.7-1.9,8.8-8,7-13.7c-1.9-5.7-8-8.8-13.7-7l-86.4,28.1c-5.3,1.9-8.3,7.7-6.7,13.2			c1.7,5.8,7.8,9.3,13.4,7.4C89.3,143.1,175.5,115.1,175.5,115.1z"/>
</svg>