<svg version="1.1" xmlns="http://www.w3.org/2000/svg" xmlns:xlink="http://www.w3.org/1999/xlink" viewBox="0 0 240 240" xml:space="preserve">
<circle fill="#37AEE2" cx="120" cy="120" r="85"/>
<path fill="#C8DAEA" d="M104.4,159c-2.8,0-2.3-1-3.2-3.7l-8.1-26.7l62.3-37"/>
<path fill="#A9C9DD" d="M104.4,159c2.1,0,3.1-1,4.3-2.1l11.3-11l-14.1-8.5"/>
<path fill="#FFFFFF" d="M105.9,137.3l34.3,25.3c3.9,2.2,6.7,1,7.7-3.6l13.9-65.7c1.4-5.7-2.2-8.3-5.9-6.6L74,118.2
	c-5.6,2.2-5.6,5.4-1,6.7l21,6.6l48.6-30.7c2.3-1.4,4.4-0.6,2.7,0.9"/>
</svg>
